<svg width="169" height="66" viewBox="0 0 169 66" fill="none" xmlns="http://www.w3.org/2000/svg">
<path d="M81.5156 40.375C81.5156 40.7812 81.5 41.4219 81.4688 42.2969C81.4688 43.1719 81.4531 44.1562 81.4219 45.25C81.3906 46.3438 81.3438 47.4844 81.2812 48.6719C81.25 49.8281 81.1875 50.8906 81.0938 51.8594C81 52.7969 80.8906 53.5781 80.7656 54.2031C80.6719 54.8281 80.5469 55.1406 80.3906 55.1406C79.9219 55.1406 79.4688 54.8125 79.0312 54.1562C78.625 53.4688 78.2031 52.7344 77.7656 51.9531C77.6719 51.7656 77.5625 51.2188 77.4375 50.3125C77.3438 49.375 77.2344 48.2031 77.1094 46.7969C77.0156 45.3906 76.9219 43.8281 76.8281 42.1094C76.7344 40.3906 76.6406 38.6406 76.5469 36.8594C76.4531 35.0781 76.375 33.3281 76.3125 31.6094C76.2812 29.8906 76.25 28.3438 76.2188 26.9688C76.1875 25.5938 76.1875 24.4531 76.2188 23.5469C76.25 22.6094 76.3125 22.0625 76.4062 21.9062C76.5312 21.6875 76.9688 21.5312 77.7188 21.4375C78.4688 21.3125 79.375 21.25 80.4375 21.25C81.5312 21.25 82.7031 21.2812 83.9531 21.3438C85.2031 21.4062 86.3594 21.5 87.4219 21.625C88.5156 21.7188 89.4219 21.8281 90.1406 21.9531C90.8906 22.0781 91.3125 22.1875 91.4062 22.2812C91.5312 22.4062 91.5469 22.75 91.4531 23.3125C91.3906 23.8438 91.2656 24.4375 91.0781 25.0938C90.9219 25.7188 90.7188 26.3125 90.4688 26.875C90.25 27.4375 90.0625 27.7969 89.9062 27.9531C89.75 28.1094 89.0156 28.0938 87.7031 27.9062C86.4219 27.7188 84.3594 27.5 81.5156 27.25V35.0781C83.7031 35.2656 85.4062 35.4375 86.625 35.5938C87.875 35.75 88.5312 35.8594 88.5938 35.9219C88.7188 36.0469 88.7656 36.2969 88.7344 36.6719C88.7031 37.0469 88.625 37.4531 88.5 37.8906C88.375 38.2969 88.2188 38.6875 88.0312 39.0625C87.8438 39.4062 87.6562 39.6406 87.4688 39.7656C87.375 39.8281 86.8125 39.9219 85.7812 40.0469C84.7812 40.1719 83.3594 40.2812 81.5156 40.375ZM94.9219 41.4531C95.4219 41.2656 95.9844 41.0625 96.6094 40.8438C97.2656 40.5938 97.8906 40.375 98.4844 40.1875C99.0781 39.9688 99.6094 39.7812 100.078 39.625C100.547 39.4688 100.891 39.3438 101.109 39.25C101.078 38.9062 101.031 38.5156 100.969 38.0781C100.938 37.6094 100.891 37.1719 100.828 36.7656C100.766 36.3281 100.688 35.9531 100.594 35.6406C100.5 35.3281 100.406 35.1406 100.312 35.0781C100.062 34.9844 99.6406 34.9062 99.0469 34.8438C98.4844 34.75 97.8906 34.7656 97.2656 34.8906C96.6719 35.0156 96.125 35.25 95.625 35.5938C95.125 35.9375 94.8438 36.4844 94.7812 37.2344C94.7188 37.7344 94.7031 38.3594 94.7344 39.1094C94.7656 39.8594 94.8281 40.6406 94.9219 41.4531ZM105.094 42.2031C105.062 42.2656 104.688 42.3906 103.969 42.5781C103.25 42.7656 102.391 42.9688 101.391 43.1875C100.391 43.375 99.3281 43.5781 98.2031 43.7969C97.0781 43.9844 96.1094 44.1406 95.2969 44.2656C95.4531 45.5156 95.6406 46.6406 95.8594 47.6406C96.0781 48.6094 96.2656 49.2188 96.4219 49.4688C96.5781 49.6875 96.7812 49.8906 97.0312 50.0781C97.25 50.2344 97.5156 50.3906 97.8281 50.5469C98.1719 50.6719 98.5781 50.7656 99.0469 50.8281C99.3906 50.9219 99.7188 50.7969 100.031 50.4531C100.281 50.1406 100.5 49.5938 100.688 48.8125C100.906 48.0312 101.016 46.7969 101.016 45.1094C101.984 44.9531 102.734 44.8594 103.266 44.8281C103.828 44.7969 104.234 44.7969 104.484 44.8281C104.797 44.8594 104.984 44.9062 105.047 44.9688C105.078 45.0625 105.078 45.2969 105.047 45.6719C105.016 46.0469 104.938 46.5156 104.812 47.0781C104.719 47.6094 104.594 48.2031 104.438 48.8594C104.312 49.4844 104.156 50.0938 103.969 50.6875C103.781 51.25 103.578 51.7656 103.359 52.2344C103.141 52.6719 102.906 52.9844 102.656 53.1719C101.906 53.7344 100.969 54.0156 99.8438 54.0156C98.7188 53.9844 97.6094 53.8281 96.5156 53.5469C95.4219 53.2344 94.4375 52.875 93.5625 52.4688C92.6875 52.0312 92.1406 51.6719 91.9219 51.3906C91.7656 51.2031 91.625 50.7344 91.5 49.9844C91.375 49.2031 91.2656 48.2656 91.1719 47.1719C91.1094 46.0781 91.0625 44.875 91.0312 43.5625C91 42.25 91.0156 40.9688 91.0781 39.7188C91.1719 38.4688 91.2969 37.3125 91.4531 36.25C91.6406 35.1875 91.8906 34.3281 92.2031 33.6719C92.6719 32.7344 93.4375 31.9688 94.5 31.375C95.5625 30.7812 96.6875 30.375 97.875 30.1562C99.0625 29.9375 100.188 29.9062 101.25 30.0625C102.344 30.2188 103.156 30.5625 103.688 31.0938C104 31.4062 104.281 32.0312 104.531 32.9688C104.781 33.875 104.938 34.9844 105 36.2969C105 36.4219 105.016 36.7812 105.047 37.375C105.078 37.9688 105.094 38.6094 105.094 39.2969C105.125 39.9531 105.141 40.5781 105.141 41.1719C105.141 41.7656 105.125 42.1094 105.094 42.2031ZM111.656 41.4531C112.156 41.2656 112.719 41.0625 113.344 40.8438C114 40.5938 114.625 40.375 115.219 40.1875C115.812 39.9688 116.344 39.7812 116.812 39.625C117.281 39.4688 117.625 39.3438 117.844 39.25C117.812 38.9062 117.766 38.5156 117.703 38.0781C117.672 37.6094 117.625 37.1719 117.562 36.7656C117.5 36.3281 117.422 35.9531 117.328 35.6406C117.234 35.3281 117.141 35.1406 117.047 35.0781C116.797 34.9844 116.375 34.9062 115.781 34.8438C115.219 34.75 114.625 34.7656 114 34.8906C113.406 35.0156 112.859 35.25 112.359 35.5938C111.859 35.9375 111.578 36.4844 111.516 37.2344C111.453 37.7344 111.438 38.3594 111.469 39.1094C111.5 39.8594 111.562 40.6406 111.656 41.4531ZM121.828 42.2031C121.797 42.2656 121.422 42.3906 120.703 42.5781C119.984 42.7656 119.125 42.9688 118.125 43.1875C117.125 43.375 116.062 43.5781 114.938 43.7969C113.812 43.9844 112.844 44.1406 112.031 44.2656C112.188 45.5156 112.375 46.6406 112.594 47.6406C112.812 48.6094 113 49.2188 113.156 49.4688C113.312 49.6875 113.516 49.8906 113.766 50.0781C113.984 50.2344 114.25 50.3906 114.562 50.5469C114.906 50.6719 115.312 50.7656 115.781 50.8281C116.125 50.9219 116.453 50.7969 116.766 50.4531C117.016 50.1406 117.234 49.5938 117.422 48.8125C117.641 48.0312 117.75 46.7969 117.75 45.1094C118.719 44.9531 119.469 44.8594 120 44.8281C120.562 44.7969 120.969 44.7969 121.219 44.8281C121.531 44.8594 121.719 44.9062 121.781 44.9688C121.812 45.0625 121.812 45.2969 121.781 45.6719C121.75 46.0469 121.672 46.5156 121.547 47.0781C121.453 47.6094 121.328 48.2031 121.172 48.8594C121.047 49.4844 120.891 50.0938 120.703 50.6875C120.516 51.25 120.312 51.7656 120.094 52.2344C119.875 52.6719 119.641 52.9844 119.391 53.1719C118.641 53.7344 117.703 54.0156 116.578 54.0156C115.453 53.9844 114.344 53.8281 113.25 53.5469C112.156 53.2344 111.172 52.875 110.297 52.4688C109.422 52.0312 108.875 51.6719 108.656 51.3906C108.5 51.2031 108.359 50.7344 108.234 49.9844C108.109 49.2031 108 48.2656 107.906 47.1719C107.844 46.0781 107.797 44.875 107.766 43.5625C107.734 42.25 107.75 40.9688 107.812 39.7188C107.906 38.4688 108.031 37.3125 108.188 36.25C108.375 35.1875 108.625 34.3281 108.938 33.6719C109.406 32.7344 110.172 31.9688 111.234 31.375C112.297 30.7812 113.422 30.375 114.609 30.1562C115.797 29.9375 116.922 29.9062 117.984 30.0625C119.078 30.2188 119.891 30.5625 120.422 31.0938C120.734 31.4062 121.016 32.0312 121.266 32.9688C121.516 33.875 121.672 34.9844 121.734 36.2969C121.734 36.4219 121.75 36.7812 121.781 37.375C121.812 37.9688 121.828 38.6094 121.828 39.2969C121.859 39.9531 121.875 40.5781 121.875 41.1719C121.875 41.7656 121.859 42.1094 121.828 42.2031ZM125.297 56.4531C125.234 56.2969 125.203 55.7344 125.203 54.7656C125.203 53.7969 125.203 52.5781 125.203 51.1094C125.234 49.6406 125.266 48 125.297 46.1875C125.359 44.3438 125.406 42.4844 125.438 40.6094C125.5 38.7031 125.562 36.8594 125.625 35.0781C125.688 33.2656 125.734 31.6562 125.766 30.25C125.828 28.8438 125.875 27.7031 125.906 26.8281C125.938 25.9219 125.969 25.4375 126 25.375C126.031 25.25 126.172 24.9375 126.422 24.4375C126.672 23.9375 126.953 23.4219 127.266 22.8906C127.609 22.3281 127.953 21.8438 128.297 21.4375C128.641 21 128.938 20.7969 129.188 20.8281C129.281 20.8594 129.359 21.4844 129.422 22.7031C129.516 23.8906 129.594 25.4219 129.656 27.2969C129.75 29.1719 129.812 31.25 129.844 33.5312C129.906 35.7812 129.953 37.9844 129.984 40.1406C130.047 42.2656 130.094 44.2031 130.125 45.9531C130.156 47.6719 130.188 48.9375 130.219 49.75C131.219 49.8438 132.219 49.9219 133.219 49.9844C134.25 50.0469 135.172 50.125 135.984 50.2188C136.797 50.2812 137.453 50.3438 137.953 50.4062C138.484 50.4688 138.766 50.5156 138.797 50.5469C138.891 50.6719 139.016 50.9688 139.172 51.4375C139.359 51.875 139.531 52.3594 139.688 52.8906C139.844 53.3906 139.953 53.8594 140.016 54.2969C140.109 54.7344 140.094 55 139.969 55.0938C136.375 55.75 133.594 56.1875 131.625 56.4062C129.656 56.625 128.203 56.7344 127.266 56.7344C126.172 56.7344 125.516 56.6406 125.297 56.4531ZM151.734 25.8438C151.203 25.875 150.672 25.8906 150.141 25.8906C149.641 25.8594 149.172 25.8438 148.734 25.8438C148.234 25.8438 147.766 25.8281 147.328 25.7969C147.391 27.4531 147.406 29.3906 147.375 31.6094C147.375 33.7969 147.344 36.0469 147.281 38.3594C147.25 40.6719 147.188 42.9375 147.094 45.1562C147.031 47.3438 146.953 49.2812 146.859 50.9688C148.047 50.9375 149.094 50.9375 150 50.9688C150.906 51 151.391 51.0469 151.453 51.1094C151.516 51.2031 151.516 51.5156 151.453 52.0469C151.391 52.5469 151.297 53.1094 151.172 53.7344C151.047 54.3281 150.922 54.875 150.797 55.375C150.672 55.9062 150.578 56.2344 150.516 56.3594C149.641 56.3906 148.828 56.3906 148.078 56.3594C147.359 56.3594 146.734 56.3281 146.203 56.2656C145.578 56.2344 145.016 56.1875 144.516 56.125C144.016 56.0312 143.484 55.9219 142.922 55.7969C142.453 55.6719 141.906 55.5156 141.281 55.3281C140.688 55.1406 140.078 54.9062 139.453 54.625C139.328 54.5625 139.172 54.3906 138.984 54.1094C138.828 53.8281 138.656 53.5312 138.469 53.2188C138.312 52.875 138.188 52.5469 138.094 52.2344C137.969 51.9219 137.906 51.7031 137.906 51.5781C137.906 51.5469 138.047 51.5156 138.328 51.4844C138.609 51.4219 139 51.375 139.5 51.3438C140 51.2812 140.562 51.2344 141.188 51.2031C141.812 51.1406 142.484 51.0938 143.203 51.0625C143.141 50.1562 143.047 48.9688 142.922 47.5C142.828 46 142.719 44.3906 142.594 42.6719C142.5 40.9219 142.391 39.1406 142.266 37.3281C142.172 35.4844 142.094 33.7812 142.031 32.2188C141.969 30.625 141.938 29.2344 141.938 28.0469C141.938 26.8594 141.984 26.0312 142.078 25.5625C142.109 25.5 142.125 25.4531 142.125 25.4219C142.125 25.3594 142.141 25.2969 142.172 25.2344L140.859 24.9062C140.484 24.8125 140.078 24.7031 139.641 24.5781C139.203 24.4531 138.766 24.3125 138.328 24.1562C138.203 24.0938 138.047 23.9219 137.859 23.6406C137.641 23.3594 137.438 23.0469 137.25 22.7031C137.031 22.3594 136.859 22.0469 136.734 21.7656C136.578 21.4531 136.5 21.2344 136.5 21.1094C136.5 21.0469 136.906 20.9844 137.719 20.9219C138.5 20.8281 139.484 20.75 140.672 20.6875C141.859 20.625 143.141 20.5781 144.516 20.5469C145.922 20.5156 147.219 20.5 148.406 20.5C149.625 20.5 150.641 20.5156 151.453 20.5469C152.297 20.5469 152.75 20.5781 152.812 20.6406C152.906 20.7344 152.906 21.0469 152.812 21.5781C152.75 22.0781 152.641 22.6406 152.484 23.2656C152.359 23.8594 152.219 24.4219 152.062 24.9531C151.938 25.4531 151.828 25.75 151.734 25.8438ZM168.422 20.4062C168.516 20.5625 168.562 20.9219 168.562 21.4844C168.594 22.0469 168.578 22.6562 168.516 23.3125C168.453 23.9688 168.359 24.6094 168.234 25.2344C168.141 25.8281 168.031 26.2188 167.906 26.4062C167.812 26.5625 167.234 26.625 166.172 26.5938C165.141 26.5312 163.656 26.375 161.719 26.125C161.719 27.3438 161.703 28.9062 161.672 30.8125C161.641 32.7188 161.578 34.7656 161.484 36.9531C161.422 39.1094 161.344 41.2812 161.25 43.4688C161.188 45.6562 161.109 47.6406 161.016 49.4219C160.922 51.2031 160.828 52.6562 160.734 53.7812C160.641 54.9062 160.562 55.5 160.5 55.5625C160.375 55.6562 160.156 55.6094 159.844 55.4219C159.562 55.2656 159.266 55.0312 158.953 54.7188C158.641 54.4062 158.344 54.0938 158.062 53.7812C157.812 53.4375 157.641 53.1406 157.547 52.8906C157.516 52.7656 157.453 52.1562 157.359 51.0625C157.297 49.9688 157.219 48.5938 157.125 46.9375C157.031 45.2812 156.922 43.4375 156.797 41.4062C156.672 39.375 156.547 37.3594 156.422 35.3594C156.297 33.3594 156.156 31.4844 156 29.7344C155.875 27.9844 155.766 26.5312 155.672 25.375C153.547 25.1562 152.016 24.9375 151.078 24.7188C150.141 24.5 149.609 24.3281 149.484 24.2031C149.359 24.0781 149.234 23.8438 149.109 23.5C148.953 23.125 148.828 22.75 148.734 22.375C148.641 22 148.594 21.6562 148.594 21.3438C148.562 21 148.594 20.7812 148.688 20.6875C148.75 20.625 149.281 20.5625 150.281 20.5C151.25 20.4375 152.453 20.375 153.891 20.3125C155.328 20.25 156.875 20.2031 158.531 20.1719C160.219 20.1406 161.781 20.125 163.219 20.125C164.656 20.125 165.859 20.1562 166.828 20.2188C167.828 20.25 168.359 20.3125 168.422 20.4062Z" fill="#FF0000"/>
<path fill-rule="evenodd" clip-rule="evenodd" d="M37.3779 0C47.2911 0 56.7983 3.47058 63.808 9.64825C70.8177 15.8259 74.7557 24.2046 74.7557 32.9412C74.7557 41.6777 70.8177 50.0564 63.808 56.2341C56.7983 62.4118 47.2911 65.8824 37.3779 65.8824C27.4646 65.8824 17.9574 62.4118 10.9477 56.2341C3.93801 50.0564 0 41.6777 0 32.9412C0 24.2046 3.93801 15.8259 10.9477 9.64825C17.9574 3.47058 27.4646 0 37.3779 0Z" fill="#4527A0"/>
<mask id="mask0_0_1" style="mask-type:luminance" maskUnits="userSpaceOnUse" x="0" y="0" width="75" height="66">
<path d="M37.3779 0C47.2911 0 56.7983 3.47058 63.808 9.64825C70.8177 15.8259 74.7557 24.2046 74.7557 32.9412C74.7557 41.6777 70.8177 50.0564 63.808 56.2341C56.7983 62.4118 47.2911 65.8824 37.3779 65.8824C27.4646 65.8824 17.9574 62.4118 10.9477 56.2341C3.93801 50.0564 0 41.6777 0 32.9412C0 24.2046 3.93801 15.8259 10.9477 9.64825C17.9574 3.47058 27.4646 0 37.3779 0Z" fill="white"/>
</mask>
<g mask="url(#mask0_0_1)">
<path fill-rule="evenodd" clip-rule="evenodd" d="M47.9666 23.7203L89.4124 60.2562L71.6186 65.9113L30.1619 29.3657L47.9666 23.7203Z" fill="#2F1C87"/>
<path fill-rule="evenodd" clip-rule="evenodd" d="M53.1349 40.396L94.5916 76.9415L94.6135 77.0766V77.2021V77.3372L94.6245 77.482V77.6267L94.6135 77.7715L94.5916 77.9162L94.5697 78.061L94.5369 78.2057L94.504 78.3505L94.4602 78.4952L94.4055 78.6496L94.3507 78.7944L94.285 78.9392L94.2193 79.0936L94.1427 79.2383L94.0551 79.3831L93.9675 79.5278L93.858 79.6726L93.7594 79.827L93.6499 79.9717L93.5295 80.1068L93.3981 80.2516L93.2667 80.3963L93.1243 80.5314L92.982 80.6665L92.8287 80.8016L92.6644 80.9368L92.5002 81.0719L92.325 81.1973L92.1388 81.3228L91.9417 81.4482L50.485 44.9123L50.6711 44.7869L50.8573 44.6614L51.0325 44.536L51.2077 44.4009L51.3719 44.2658L51.5252 44.1306L51.6676 43.9955L51.8099 43.8508L51.9413 43.7157L52.0727 43.5709L52.1822 43.4262L52.2917 43.2814L52.4012 43.1367L52.5107 42.9919L52.5983 42.8472L52.675 42.7024L52.7516 42.548L52.8283 42.4033L52.894 42.2585L52.9487 42.1041L52.9925 41.9593L53.0363 41.8146L53.0801 41.6602L53.113 41.5154L53.1349 41.3707L53.1458 41.2259L53.1568 41.0812V40.6662L53.1458 40.5311L53.1349 40.396Z" fill="#2F1C87"/>
<path fill-rule="evenodd" clip-rule="evenodd" d="M30.1619 29.3658L71.6186 65.9113L74.2904 81.6798L32.8227 45.1343L30.1619 29.3658Z" fill="#2F1C87"/>
<path fill-rule="evenodd" clip-rule="evenodd" d="M48.8206 14.929L90.2773 51.4649L94.5916 76.9416L53.1349 40.396L48.8206 14.929Z" fill="#2F1C87"/>
<path fill-rule="evenodd" clip-rule="evenodd" d="M50.496 44.922L91.9527 81.4579L91.679 81.6316L91.4052 81.7763L91.1315 81.9211L90.8468 82.0562L90.573 82.172L90.2883 82.2781L90.0036 82.3746L89.7299 82.4615L89.4452 82.5291L89.1605 82.5966L88.8867 82.6449L88.613 82.6931L88.3392 82.7221L88.0655 82.7414L87.7917 82.751H87.2771L87.0252 82.7221L86.7734 82.7028L86.5325 82.6642L86.2916 82.6159L86.0616 82.558L85.8426 82.5001L85.6236 82.4229L85.4046 82.3457L85.2075 82.2492L85.0104 82.1527L84.8243 82.0562L84.6491 81.9404L84.4848 81.8246L84.3315 81.6895L42.8529 45.1632L43.0172 45.2887L43.1814 45.4141L43.3566 45.5203L43.5428 45.6264L43.7289 45.7229L43.937 45.8194L44.145 45.8966L44.364 45.9642L44.583 46.0318L44.8239 46.0897L45.0648 46.1283L45.3057 46.1669L45.5576 46.1958L45.8094 46.2151H46.6088L46.8716 46.1862L47.1453 46.1572L47.43 46.1186L47.7038 46.0704L47.9885 46.0028L48.2622 45.9256L48.5469 45.8484L48.8316 45.7519L49.1054 45.6457L49.3901 45.5203L49.6748 45.3948L49.9485 45.2501L50.2223 45.0957L50.496 44.922Z" fill="#2F1C87"/>
<path fill-rule="evenodd" clip-rule="evenodd" d="M32.8227 45.1343L74.2904 81.6798L74.3123 81.8149V81.95L74.3342 82.0948V82.3746L74.3123 82.5194L74.3013 82.6642L74.2794 82.8089L74.2466 82.9537L74.2028 83.0984L74.159 83.2432L74.1152 83.3976L74.0604 83.5423L73.9947 83.6871L73.9181 83.8415L73.8414 83.9862L73.7648 84.131L73.6662 84.2854L73.5677 84.4301L73.4582 84.5749L73.3487 84.7197L73.2392 84.8644L73.1078 84.9995L72.9764 85.1443L72.834 85.2794L72.6917 85.4241L72.5384 85.5592L72.3741 85.6943L72.1989 85.8198L72.0237 85.9549L71.8485 86.0803L71.6514 86.2058L30.1947 49.6602L30.3809 49.5348L30.567 49.4093L30.7422 49.2839L30.9174 49.1488L31.0707 49.0137L31.235 48.8786L31.3773 48.7435L31.5197 48.6084L31.6511 48.4636L31.7715 48.3189L31.892 48.1838L32.0015 48.039L32.111 47.8846L32.2205 47.7398L32.2971 47.5951L32.3847 47.4503L32.4614 47.3056L32.538 47.1512L32.5928 47.0064L32.6585 46.852L32.7023 46.7073L32.7461 46.5625L32.7899 46.4178L32.8118 46.273L32.8556 46.1186V45.9738L32.8665 45.8387V45.4141L32.8446 45.279L32.8227 45.1343Z" fill="#2F1C87"/>
<path fill-rule="evenodd" clip-rule="evenodd" d="M30.1947 49.6603L71.6514 86.2058L71.3777 86.3699L71.1039 86.5243L70.8302 86.6594L70.5455 86.7945L70.2717 86.9103L69.987 87.0164L69.7133 87.1129L69.4286 87.1998L69.1439 87.2673L68.8701 87.3349L68.5854 87.3831L68.3117 87.4314L68.0379 87.4603L67.7642 87.4796L67.5014 87.4893H66.9758L66.7239 87.4603L66.4721 87.441L66.2202 87.4024L65.9903 87.3542L65.7494 87.2963L65.5304 87.2384L65.3114 87.1612L65.0923 87.084L64.8953 86.9875L64.6982 86.891L64.512 86.7945L64.3368 86.6787L64.1726 86.5629L22.7158 50.027L22.8801 50.1428L23.0553 50.2586L23.2414 50.3551L23.4385 50.4516L23.6356 50.5481L23.8546 50.6253L24.0736 50.7025L24.2926 50.7604L24.5226 50.8183L24.7635 50.8665L25.0153 50.8955L25.2562 50.9244L25.519 50.9437H26.3074L26.5812 50.9244L26.8549 50.8858L27.1287 50.8472L27.4134 50.799L27.6871 50.7314L27.9718 50.6542L28.2456 50.577L28.5303 50.4805L28.815 50.3744L29.0887 50.2586L29.3734 50.1235L29.6472 49.9787L29.9209 49.834L30.1947 49.6603Z" fill="#2F1C87"/>
<path fill-rule="evenodd" clip-rule="evenodd" d="M48.8207 14.929L53.1351 40.4057C53.3869 41.8339 52.5766 43.6095 50.4961 44.922C47.5943 46.7555 44.1889 46.495 42.7216 45.0185C41.2324 43.5323 41.6813 40.8303 44.5721 38.9967C45.3857 38.4513 46.3248 38.0694 47.3235 37.8777C48.3223 37.686 49.3565 37.6891 50.3537 37.8869L47.9666 23.7203L30.1729 29.3657L32.8337 45.1343C33.0965 46.5818 32.2862 48.3478 30.2057 49.6699C27.3149 51.5035 23.9095 51.2429 22.4312 49.7664C20.942 48.2803 21.391 45.5782 24.2708 43.7446C25.0852 43.1968 26.0257 42.8127 27.0264 42.6193C28.0271 42.4259 29.0637 42.4279 30.0634 42.6252L26.5594 21.9929L48.8207 14.929Z" fill="#2F1C87"/>
</g>
<path d="M26.5593 21.993L30.0524 42.6252C29.0527 42.4279 28.0161 42.4259 27.0154 42.6193C26.0147 42.8127 25.0741 43.1968 24.2598 43.7446C21.38 45.5782 20.931 48.2803 22.4093 49.7568C23.8985 51.2429 27.3039 51.4938 30.1838 49.6603C32.2643 48.3478 33.0855 46.5722 32.8227 45.1343L30.1619 29.3658L47.9556 23.7204L50.3646 37.8869C49.3641 37.6862 48.3257 37.6815 47.3229 37.8733C46.3201 38.065 45.3773 38.4486 44.5611 38.9967C41.6813 40.8303 41.2323 43.5323 42.7106 45.0185C44.1888 46.495 47.5943 46.7555 50.496 44.922C52.5765 43.6095 53.3868 41.8339 53.124 40.396L48.8207 14.9193L26.5593 21.993Z" fill="#DCE775"/>
<path d="M30.0524 42.6252C29.0527 42.4279 28.0161 42.4259 27.0154 42.6193C26.0147 42.8127 25.0741 43.1968 24.2598 43.7446C21.38 45.5782 20.931 48.2803 22.4093 49.7568C23.8985 51.2429 27.3039 51.4938 30.1838 49.6603C32.2643 48.3478 33.0855 46.5722 32.8227 45.1343C32.2752 43.5902 31.2788 42.8761 30.0524 42.6252ZM50.3537 37.8869C49.3565 37.6891 48.3222 37.686 47.3235 37.8777C46.3247 38.0694 45.3856 38.4513 44.5721 38.9967C41.6813 40.8303 41.2323 43.5323 42.7106 45.0185C44.1888 46.495 47.5943 46.7555 50.496 44.922C52.5765 43.6095 53.3868 41.8339 53.124 40.396C52.4611 39.3634 51.5069 38.4991 50.3537 37.8869Z" fill="#C0CA33"/>
</svg>
